<svg xmlns="http://www.w3.org/2000/svg" xmlns:xlink="http://www.w3.org/1999/xlink" width="500" zoomAndPan="magnify" viewBox="0 0 375 374.999991" height="500" preserveAspectRatio="xMidYMid meet" version="1.0"><defs><g/><clipPath id="85b9c2b9f5"><path d="M 5 5 L 127 5 L 127 127 L 5 127 Z M 5 5 " clip-rule="nonzero"/></clipPath><clipPath id="e6dcb70598"><path d="M -55.5 65.96875 L 65.945312 -55.476562 L 130.644531 9.222656 L 9.199219 130.667969 Z M -55.5 65.96875 " clip-rule="nonzero"/></clipPath><clipPath id="fcdad4a91f"><path d="M -55.5 65.96875 L 65.945312 -55.476562 L 130.644531 9.222656 L 9.199219 130.667969 Z M -55.5 65.96875 " clip-rule="nonzero"/></clipPath><clipPath id="31833e3b16"><path d="M 248 248 L 370 248 L 370 370 L 248 370 Z M 248 248 " clip-rule="nonzero"/></clipPath><clipPath id="4836a094c9"><path d="M 430.496094 309.023438 L 309.050781 430.46875 L 244.351562 365.769531 L 365.796875 244.324219 Z M 430.496094 309.023438 " clip-rule="nonzero"/></clipPath><clipPath id="141cbabdc2"><path d="M 430.496094 309.023438 L 309.050781 430.46875 L 244.351562 365.769531 L 365.796875 244.324219 Z M 430.496094 309.023438 " clip-rule="nonzero"/></clipPath></defs><g fill="#021c4b" fill-opacity="1"><g transform="translate(72.104845, 248.249984)"><g><path d="M 47.203125 -105.6875 C 59.734375 -105.6875 70.859375 -102.429688 80.578125 -95.921875 L 75.46875 -84.640625 C 66.65625 -90.554688 56.984375 -93.515625 46.453125 -93.515625 C 39.640625 -93.515625 34.203125 -92.285156 30.140625 -89.828125 C 26.085938 -87.367188 24.0625 -83.9375 24.0625 -79.53125 C 24.0625 -75.320312 25.515625 -71.8125 28.421875 -69 C 31.328125 -66.195312 34.984375 -64.117188 39.390625 -62.765625 C 43.796875 -61.410156 48.554688 -59.859375 53.671875 -58.109375 C 58.785156 -56.359375 63.519531 -54.53125 67.875 -52.625 C 72.238281 -50.71875 75.875 -47.679688 78.78125 -43.515625 C 81.6875 -39.359375 83.140625 -34.328125 83.140625 -28.421875 C 83.140625 -19.691406 79.628906 -12.695312 72.609375 -7.4375 C 65.597656 -2.175781 56.429688 0.453125 45.109375 0.453125 C 37.585938 0.453125 30.269531 -1 23.15625 -3.90625 C 16.039062 -6.8125 9.925781 -10.722656 4.8125 -15.640625 L 10.21875 -26.453125 C 15.03125 -21.742188 20.566406 -18.085938 26.828125 -15.484375 C 33.097656 -12.878906 39.238281 -11.578125 45.25 -11.578125 C 52.863281 -11.578125 58.875 -13.03125 63.28125 -15.9375 C 67.695312 -18.84375 69.90625 -22.800781 69.90625 -27.8125 C 69.90625 -31.519531 68.828125 -34.675781 66.671875 -37.28125 C 64.515625 -39.882812 61.707031 -41.910156 58.25 -43.359375 C 54.800781 -44.816406 50.96875 -46.171875 46.75 -47.421875 C 42.539062 -48.679688 38.332031 -50.035156 34.125 -51.484375 C 29.914062 -52.941406 26.054688 -54.695312 22.546875 -56.75 C 19.046875 -58.8125 16.21875 -61.671875 14.0625 -65.328125 C 11.90625 -68.984375 10.828125 -73.367188 10.828125 -78.484375 C 10.828125 -86.703125 14.160156 -93.289062 20.828125 -98.25 C 27.492188 -103.207031 36.285156 -105.6875 47.203125 -105.6875 Z M 47.203125 -105.6875 "/></g></g></g><g fill="#021c4b" fill-opacity="1"><g transform="translate(183.50807, 248.249984)"><g><path d="M 103.4375 0 L 91.40625 0 L 91.40625 -46.3125 L 27.96875 -46.3125 L 27.96875 0 L 15.9375 0 L 15.9375 -105.234375 L 27.96875 -105.234375 L 27.96875 -57.734375 L 91.40625 -57.734375 L 91.40625 -105.234375 L 103.4375 -105.234375 Z M 103.4375 0 "/></g></g></g><g clip-path="url(#85b9c2b9f5)"><g clip-path="url(#e6dcb70598)"><g clip-path="url(#fcdad4a91f)"><path fill="#021c4b" d="M 12.6875 12.683594 L 126.941406 12.679688 L 126.945312 5.4375 L 5.4375 5.4375 L 5.4375 126.941406 L 12.683594 126.941406 Z M 12.6875 12.683594 " fill-opacity="1" fill-rule="nonzero"/></g></g></g><g clip-path="url(#31833e3b16)"><g clip-path="url(#4836a094c9)"><g clip-path="url(#141cbabdc2)"><path fill="#021c4b" d="M 362.308594 362.308594 L 248.054688 362.308594 L 248.050781 369.554688 L 369.554688 369.554688 L 369.554688 248.046875 L 362.3125 248.050781 Z M 362.308594 362.308594 " fill-opacity="1" fill-rule="nonzero"/></g></g></g></svg>