<svg xmlns="http://www.w3.org/2000/svg" xmlns:xlink="http://www.w3.org/1999/xlink" width="600" zoomAndPan="magnify" viewBox="0 0 450 121.500001" height="162" preserveAspectRatio="xMidYMid meet" version="1.0"><defs><g/><clipPath id="6ab4b737a8"><path d="M 446 71 L 449 71 L 449 121.003906 L 446 121.003906 Z M 446 71 " clip-rule="nonzero"/></clipPath><clipPath id="ff326e0163"><path d="M 380 118 L 449 118 L 449 121.003906 L 380 121.003906 Z M 380 118 " clip-rule="nonzero"/></clipPath><clipPath id="328d097fcf"><path d="M 0.921875 0 L 4 0 L 4 50 L 0.921875 50 Z M 0.921875 0 " clip-rule="nonzero"/></clipPath><clipPath id="c1f3b1d7f1"><path d="M 0.921875 0 L 69 0 L 69 3 L 0.921875 3 Z M 0.921875 0 " clip-rule="nonzero"/></clipPath></defs><g fill="#000120" fill-opacity="1"><g transform="translate(108.319295, 60.210133)"><g><path d="M 9.8125 -21.984375 C 12.414062 -21.984375 14.734375 -21.304688 16.765625 -19.953125 L 15.703125 -17.609375 C 13.859375 -18.835938 11.84375 -19.453125 9.65625 -19.453125 C 8.238281 -19.453125 7.109375 -19.195312 6.265625 -18.6875 C 5.421875 -18.175781 5 -17.460938 5 -16.546875 C 5 -15.660156 5.300781 -14.925781 5.90625 -14.34375 C 6.507812 -13.757812 7.269531 -13.328125 8.1875 -13.046875 C 9.101562 -12.765625 10.09375 -12.441406 11.15625 -12.078125 C 12.21875 -11.710938 13.203125 -11.332031 14.109375 -10.9375 C 15.015625 -10.539062 15.769531 -9.910156 16.375 -9.046875 C 16.988281 -8.179688 17.296875 -7.132812 17.296875 -5.90625 C 17.296875 -4.09375 16.5625 -2.640625 15.09375 -1.546875 C 13.632812 -0.453125 11.726562 0.09375 9.375 0.09375 C 7.8125 0.09375 6.289062 -0.207031 4.8125 -0.8125 C 3.332031 -1.414062 2.0625 -2.226562 1 -3.25 L 2.125 -5.5 C 3.125 -4.519531 4.273438 -3.757812 5.578125 -3.21875 C 6.878906 -2.675781 8.15625 -2.40625 9.40625 -2.40625 C 10.988281 -2.40625 12.238281 -2.707031 13.15625 -3.3125 C 14.070312 -3.914062 14.53125 -4.738281 14.53125 -5.78125 C 14.53125 -6.550781 14.304688 -7.207031 13.859375 -7.75 C 13.410156 -8.289062 12.828125 -8.710938 12.109375 -9.015625 C 11.390625 -9.316406 10.59375 -9.597656 9.71875 -9.859375 C 8.84375 -10.117188 7.96875 -10.398438 7.09375 -10.703125 C 6.21875 -11.003906 5.414062 -11.367188 4.6875 -11.796875 C 3.957031 -12.222656 3.367188 -12.816406 2.921875 -13.578125 C 2.472656 -14.335938 2.25 -15.253906 2.25 -16.328125 C 2.25 -18.035156 2.941406 -19.40625 4.328125 -20.4375 C 5.710938 -21.46875 7.539062 -21.984375 9.8125 -21.984375 Z M 9.8125 -21.984375 "/></g></g></g><g fill="#000120" fill-opacity="1"><g transform="translate(131.491084, 60.210133)"><g><path d="M 25.453125 0 L 23.140625 0 L 23.109375 -18.046875 L 15.125 -2.3125 L 13.625 -2.3125 L 5.6875 -18.046875 L 5.6875 0 L 3.3125 0 L 3.3125 -21.890625 L 6.40625 -21.890625 L 14.40625 -6.125 L 22.390625 -21.890625 L 25.453125 -21.890625 Z M 25.453125 0 "/></g></g></g><g fill="#000120" fill-opacity="1"><g transform="translate(164.356874, 60.210133)"><g><path d="M 17.171875 -5.53125 L 5.21875 -5.53125 L 2.78125 0 L 0.125 0 L 9.9375 -21.890625 L 12.53125 -21.890625 L 22.328125 0 L 19.609375 0 Z M 16.109375 -7.9375 L 11.15625 -19.046875 L 6.28125 -7.9375 Z M 16.109375 -7.9375 "/></g></g></g><g fill="#000120" fill-opacity="1"><g transform="translate(190.87466, 60.210133)"><g><path d="M 17.640625 0 L 13.09375 -6.96875 C 12.46875 -6.925781 11.976562 -6.90625 11.625 -6.90625 L 5.8125 -6.90625 L 5.8125 0 L 3.3125 0 L 3.3125 -21.890625 L 11.625 -21.890625 C 14.363281 -21.890625 16.488281 -21.25 18 -19.96875 C 19.507812 -18.6875 20.265625 -16.875 20.265625 -14.53125 C 20.265625 -12.738281 19.84375 -11.238281 19 -10.03125 C 18.15625 -8.820312 16.9375 -7.957031 15.34375 -7.4375 L 20.484375 0 Z M 5.8125 -9.3125 L 11.625 -9.3125 C 13.625 -9.3125 15.160156 -9.75 16.234375 -10.625 C 17.316406 -11.5 17.859375 -12.78125 17.859375 -14.46875 C 17.859375 -16.125 17.316406 -17.375 16.234375 -18.21875 C 15.160156 -19.0625 13.625 -19.484375 11.625 -19.484375 L 5.8125 -19.484375 Z M 5.8125 -9.3125 "/></g></g></g><g fill="#000120" fill-opacity="1"><g transform="translate(217.548806, 60.210133)"><g><path d="M 17.140625 -19.484375 L 9.96875 -19.484375 L 9.96875 0 L 7.46875 0 L 7.46875 -19.484375 L 0.34375 -19.484375 L 0.34375 -21.890625 L 17.140625 -21.890625 Z M 17.140625 -19.484375 "/></g></g></g><g fill="#000120" fill-opacity="1"><g transform="translate(239.063249, 60.210133)"><g><path d="M 21.515625 0 L 19.015625 0 L 19.015625 -9.625 L 5.8125 -9.625 L 5.8125 0 L 3.3125 0 L 3.3125 -21.890625 L 5.8125 -21.890625 L 5.8125 -12 L 19.015625 -12 L 19.015625 -21.890625 L 21.515625 -21.890625 Z M 21.515625 0 "/></g></g></g><g fill="#000120" fill-opacity="1"><g transform="translate(267.957628, 60.210133)"><g><path d="M 17.171875 -5.53125 L 5.21875 -5.53125 L 2.78125 0 L 0.125 0 L 9.9375 -21.890625 L 12.53125 -21.890625 L 22.328125 0 L 19.609375 0 Z M 16.109375 -7.9375 L 11.15625 -19.046875 L 6.28125 -7.9375 Z M 16.109375 -7.9375 "/></g></g></g><g fill="#000120" fill-opacity="1"><g transform="translate(294.47542, 60.210133)"><g><path d="M 21.203125 -21.890625 L 21.203125 -9 C 21.203125 -6.144531 20.390625 -3.910156 18.765625 -2.296875 C 17.140625 -0.679688 14.894531 0.125 12.03125 0.125 C 9.15625 0.125 6.898438 -0.679688 5.265625 -2.296875 C 3.628906 -3.910156 2.8125 -6.144531 2.8125 -9 L 2.8125 -21.890625 L 5.3125 -21.890625 L 5.3125 -9 C 5.3125 -6.894531 5.910156 -5.25 7.109375 -4.0625 C 8.304688 -2.875 9.945312 -2.28125 12.03125 -2.28125 C 14.113281 -2.28125 15.742188 -2.867188 16.921875 -4.046875 C 18.109375 -5.222656 18.703125 -6.875 18.703125 -9 L 18.703125 -21.890625 Z M 21.203125 -21.890625 "/></g></g></g><g fill="#000120" fill-opacity="1"><g transform="translate(322.55675, 60.210133)"><g><path d="M 9.8125 -21.984375 C 12.414062 -21.984375 14.734375 -21.304688 16.765625 -19.953125 L 15.703125 -17.609375 C 13.859375 -18.835938 11.84375 -19.453125 9.65625 -19.453125 C 8.238281 -19.453125 7.109375 -19.195312 6.265625 -18.6875 C 5.421875 -18.175781 5 -17.460938 5 -16.546875 C 5 -15.660156 5.300781 -14.925781 5.90625 -14.34375 C 6.507812 -13.757812 7.269531 -13.328125 8.1875 -13.046875 C 9.101562 -12.765625 10.09375 -12.441406 11.15625 -12.078125 C 12.21875 -11.710938 13.203125 -11.332031 14.109375 -10.9375 C 15.015625 -10.539062 15.769531 -9.910156 16.375 -9.046875 C 16.988281 -8.179688 17.296875 -7.132812 17.296875 -5.90625 C 17.296875 -4.09375 16.5625 -2.640625 15.09375 -1.546875 C 13.632812 -0.453125 11.726562 0.09375 9.375 0.09375 C 7.8125 0.09375 6.289062 -0.207031 4.8125 -0.8125 C 3.332031 -1.414062 2.0625 -2.226562 1 -3.25 L 2.125 -5.5 C 3.125 -4.519531 4.273438 -3.757812 5.578125 -3.21875 C 6.878906 -2.675781 8.15625 -2.40625 9.40625 -2.40625 C 10.988281 -2.40625 12.238281 -2.707031 13.15625 -3.3125 C 14.070312 -3.914062 14.53125 -4.738281 14.53125 -5.78125 C 14.53125 -6.550781 14.304688 -7.207031 13.859375 -7.75 C 13.410156 -8.289062 12.828125 -8.710938 12.109375 -9.015625 C 11.390625 -9.316406 10.59375 -9.597656 9.71875 -9.859375 C 8.84375 -10.117188 7.96875 -10.398438 7.09375 -10.703125 C 6.21875 -11.003906 5.414062 -11.367188 4.6875 -11.796875 C 3.957031 -12.222656 3.367188 -12.816406 2.921875 -13.578125 C 2.472656 -14.335938 2.25 -15.253906 2.25 -16.328125 C 2.25 -18.035156 2.941406 -19.40625 4.328125 -20.4375 C 5.710938 -21.46875 7.539062 -21.984375 9.8125 -21.984375 Z M 9.8125 -21.984375 "/></g></g></g><g clip-path="url(#6ab4b737a8)"><path stroke-linecap="butt" transform="matrix(0, -0.650248, 0.650248, 0, 446.342764, 121.20367)" fill="none" stroke-linejoin="miter" d="M 0.000838136 2.001956 L 74.53373 2.001956 " stroke="#000120" stroke-width="4" stroke-opacity="1" stroke-miterlimit="4"/></g><g clip-path="url(#ff326e0163)"><path stroke-linecap="butt" transform="matrix(0.650248, 0, 0, 0.650248, 382.258737, 118.604161)" fill="none" stroke-linejoin="miter" d="M -0.00142215 2.00245 L 100.555205 2.00245 " stroke="#000120" stroke-width="4" stroke-opacity="1" stroke-miterlimit="4"/></g><g clip-path="url(#328d097fcf)"><path stroke-linecap="butt" transform="matrix(0, 0.650248, -0.650248, 0, 3.512963, -0.425964)" fill="none" stroke-linejoin="miter" d="M 0.000281193 2.002353 L 74.533173 2.002353 " stroke="#000120" stroke-width="4" stroke-opacity="1" stroke-miterlimit="4"/></g><g clip-path="url(#c1f3b1d7f1)"><path stroke-linecap="butt" transform="matrix(-0.650248, 0, 0, -0.650248, 67.596964, 2.173543)" fill="none" stroke-linejoin="miter" d="M -0.00106424 1.996998 L 100.555563 1.996998 " stroke="#000120" stroke-width="4" stroke-opacity="1" stroke-miterlimit="4"/></g></svg>