<svg xmlns="http://www.w3.org/2000/svg" xmlns:xlink="http://www.w3.org/1999/xlink" width="600" zoomAndPan="magnify" viewBox="0 0 450 121.500001" height="162" preserveAspectRatio="xMidYMid meet" version="1.0"><defs><g/><clipPath id="4784b1d0bc"><path d="M 446 77 L 449.078125 77 L 449.078125 121.003906 L 446 121.003906 Z M 446 77 " clip-rule="nonzero"/></clipPath><clipPath id="fc90faf007"><path d="M 390 118 L 449.078125 118 L 449.078125 121 L 390 121 Z M 390 118 " clip-rule="nonzero"/></clipPath><clipPath id="c81202ecf6"><path d="M 0.921875 0 L 4 0 L 4 44 L 0.921875 44 Z M 0.921875 0 " clip-rule="nonzero"/></clipPath><clipPath id="793337a9c0"><path d="M 0.921875 0 L 60 0 L 60 3 L 0.921875 3 Z M 0.921875 0 " clip-rule="nonzero"/></clipPath></defs><g fill="#e1dcdc" fill-opacity="1"><g transform="translate(108.712964, 72.620928)"><g><path d="M 9.78125 -21.90625 C 12.382812 -21.90625 14.691406 -21.234375 16.703125 -19.890625 L 15.640625 -17.546875 C 13.816406 -18.773438 11.8125 -19.390625 9.625 -19.390625 C 8.21875 -19.390625 7.09375 -19.132812 6.25 -18.625 C 5.40625 -18.113281 4.984375 -17.398438 4.984375 -16.484375 C 4.984375 -15.617188 5.285156 -14.894531 5.890625 -14.3125 C 6.492188 -13.726562 7.25 -13.296875 8.15625 -13.015625 C 9.070312 -12.734375 10.0625 -12.410156 11.125 -12.046875 C 12.1875 -11.679688 13.171875 -11.300781 14.078125 -10.90625 C 14.984375 -10.507812 15.734375 -9.878906 16.328125 -9.015625 C 16.929688 -8.160156 17.234375 -7.117188 17.234375 -5.890625 C 17.234375 -4.078125 16.503906 -2.625 15.046875 -1.53125 C 13.597656 -0.445312 11.695312 0.09375 9.34375 0.09375 C 7.789062 0.09375 6.273438 -0.207031 4.796875 -0.8125 C 3.328125 -1.414062 2.0625 -2.222656 1 -3.234375 L 2.125 -5.484375 C 3.113281 -4.503906 4.257812 -3.742188 5.5625 -3.203125 C 6.863281 -2.671875 8.132812 -2.40625 9.375 -2.40625 C 10.957031 -2.40625 12.207031 -2.703125 13.125 -3.296875 C 14.039062 -3.898438 14.5 -4.722656 14.5 -5.765625 C 14.5 -6.535156 14.273438 -7.191406 13.828125 -7.734375 C 13.378906 -8.273438 12.796875 -8.691406 12.078125 -8.984375 C 11.359375 -9.285156 10.5625 -9.566406 9.6875 -9.828125 C 8.820312 -10.085938 7.953125 -10.367188 7.078125 -10.671875 C 6.203125 -10.972656 5.398438 -11.335938 4.671875 -11.765625 C 3.941406 -12.191406 3.351562 -12.785156 2.90625 -13.546875 C 2.46875 -14.304688 2.25 -15.210938 2.25 -16.265625 C 2.25 -17.972656 2.9375 -19.335938 4.3125 -20.359375 C 5.695312 -21.390625 7.519531 -21.90625 9.78125 -21.90625 Z M 9.78125 -21.90625 "/></g></g></g><g fill="#e1dcdc" fill-opacity="1"><g transform="translate(131.806573, 72.620928)"><g><path d="M 25.375 0 L 23.0625 0 L 23.03125 -17.984375 L 15.09375 -2.3125 L 13.59375 -2.3125 L 5.671875 -17.984375 L 5.671875 0 L 3.296875 0 L 3.296875 -21.8125 L 6.390625 -21.8125 L 14.375 -6.109375 L 22.3125 -21.8125 L 25.375 -21.8125 Z M 25.375 0 "/></g></g></g><g fill="#e1dcdc" fill-opacity="1"><g transform="translate(164.561478, 72.620928)"><g><path d="M 17.109375 -5.515625 L 5.203125 -5.515625 L 2.78125 0 L 0.125 0 L 9.90625 -21.8125 L 12.5 -21.8125 L 22.25 0 L 19.546875 0 Z M 16.046875 -7.921875 L 11.125 -18.984375 L 6.265625 -7.921875 Z M 16.046875 -7.921875 "/></g></g></g><g fill="#e1dcdc" fill-opacity="1"><g transform="translate(190.989796, 72.620928)"><g><path d="M 17.578125 0 L 13.0625 -6.953125 C 12.4375 -6.910156 11.945312 -6.890625 11.59375 -6.890625 L 5.796875 -6.890625 L 5.796875 0 L 3.296875 0 L 3.296875 -21.8125 L 11.59375 -21.8125 C 14.3125 -21.8125 16.425781 -21.171875 17.9375 -19.890625 C 19.445312 -18.617188 20.203125 -16.820312 20.203125 -14.5 C 20.203125 -12.707031 19.78125 -11.207031 18.9375 -10 C 18.09375 -8.800781 16.882812 -7.941406 15.3125 -7.421875 L 20.421875 0 Z M 5.796875 -9.296875 L 11.59375 -9.296875 C 13.59375 -9.296875 15.125 -9.726562 16.1875 -10.59375 C 17.257812 -11.46875 17.796875 -12.75 17.796875 -14.4375 C 17.796875 -16.070312 17.257812 -17.3125 16.1875 -18.15625 C 15.125 -19 13.59375 -19.421875 11.59375 -19.421875 L 5.796875 -19.421875 Z M 5.796875 -9.296875 "/></g></g></g><g fill="#e1dcdc" fill-opacity="1"><g transform="translate(217.573948, 72.620928)"><g><path d="M 17.078125 -19.421875 L 9.9375 -19.421875 L 9.9375 0 L 7.453125 0 L 7.453125 -19.421875 L 0.34375 -19.421875 L 0.34375 -21.8125 L 17.078125 -21.8125 Z M 17.078125 -19.421875 "/></g></g></g><g fill="#e1dcdc" fill-opacity="1"><g transform="translate(239.015804, 72.620928)"><g><path d="M 21.453125 0 L 18.953125 0 L 18.953125 -9.59375 L 5.796875 -9.59375 L 5.796875 0 L 3.296875 0 L 3.296875 -21.8125 L 5.796875 -21.8125 L 5.796875 -11.96875 L 18.953125 -11.96875 L 18.953125 -21.8125 L 21.453125 -21.8125 Z M 21.453125 0 "/></g></g></g><g fill="#e1dcdc" fill-opacity="1"><g transform="translate(267.812697, 72.620928)"><g><path d="M 17.109375 -5.515625 L 5.203125 -5.515625 L 2.78125 0 L 0.125 0 L 9.90625 -21.8125 L 12.5 -21.8125 L 22.25 0 L 19.546875 0 Z M 16.046875 -7.921875 L 11.125 -18.984375 L 6.265625 -7.921875 Z M 16.046875 -7.921875 "/></g></g></g><g fill="#e1dcdc" fill-opacity="1"><g transform="translate(294.241021, 72.620928)"><g><path d="M 21.140625 -21.8125 L 21.140625 -8.984375 C 21.140625 -6.128906 20.328125 -3.894531 18.703125 -2.28125 C 17.078125 -0.675781 14.84375 0.125 12 0.125 C 9.132812 0.125 6.882812 -0.675781 5.25 -2.28125 C 3.625 -3.894531 2.8125 -6.128906 2.8125 -8.984375 L 2.8125 -21.8125 L 5.296875 -21.8125 L 5.296875 -8.984375 C 5.296875 -6.878906 5.894531 -5.234375 7.09375 -4.046875 C 8.289062 -2.867188 9.925781 -2.28125 12 -2.28125 C 14.082031 -2.28125 15.707031 -2.863281 16.875 -4.03125 C 18.050781 -5.207031 18.640625 -6.859375 18.640625 -8.984375 L 18.640625 -21.8125 Z M 21.140625 -21.8125 "/></g></g></g><g fill="#e1dcdc" fill-opacity="1"><g transform="translate(322.227608, 72.620928)"><g><path d="M 9.78125 -21.90625 C 12.382812 -21.90625 14.691406 -21.234375 16.703125 -19.890625 L 15.640625 -17.546875 C 13.816406 -18.773438 11.8125 -19.390625 9.625 -19.390625 C 8.21875 -19.390625 7.09375 -19.132812 6.25 -18.625 C 5.40625 -18.113281 4.984375 -17.398438 4.984375 -16.484375 C 4.984375 -15.617188 5.285156 -14.894531 5.890625 -14.3125 C 6.492188 -13.726562 7.25 -13.296875 8.15625 -13.015625 C 9.070312 -12.734375 10.0625 -12.410156 11.125 -12.046875 C 12.1875 -11.679688 13.171875 -11.300781 14.078125 -10.90625 C 14.984375 -10.507812 15.734375 -9.878906 16.328125 -9.015625 C 16.929688 -8.160156 17.234375 -7.117188 17.234375 -5.890625 C 17.234375 -4.078125 16.503906 -2.625 15.046875 -1.53125 C 13.597656 -0.445312 11.695312 0.09375 9.34375 0.09375 C 7.789062 0.09375 6.273438 -0.207031 4.796875 -0.8125 C 3.328125 -1.414062 2.0625 -2.222656 1 -3.234375 L 2.125 -5.484375 C 3.113281 -4.503906 4.257812 -3.742188 5.5625 -3.203125 C 6.863281 -2.671875 8.132812 -2.40625 9.375 -2.40625 C 10.957031 -2.40625 12.207031 -2.703125 13.125 -3.296875 C 14.039062 -3.898438 14.5 -4.722656 14.5 -5.765625 C 14.5 -6.535156 14.273438 -7.191406 13.828125 -7.734375 C 13.378906 -8.273438 12.796875 -8.691406 12.078125 -8.984375 C 11.359375 -9.285156 10.5625 -9.566406 9.6875 -9.828125 C 8.820312 -10.085938 7.953125 -10.367188 7.078125 -10.671875 C 6.203125 -10.972656 5.398438 -11.335938 4.671875 -11.765625 C 3.941406 -12.191406 3.351562 -12.785156 2.90625 -13.546875 C 2.46875 -14.304688 2.25 -15.210938 2.25 -16.265625 C 2.25 -17.972656 2.9375 -19.335938 4.3125 -20.359375 C 5.695312 -21.390625 7.519531 -21.90625 9.78125 -21.90625 Z M 9.78125 -21.90625 "/></g></g></g><g clip-path="url(#4784b1d0bc)"><path stroke-linecap="butt" transform="matrix(0, -0.563151, 0.563151, 0, 446.823951, 121.000759)" fill="none" stroke-linejoin="miter" d="M 0.00134853 1.998164 L 74.533203 1.998164 " stroke="#e1dcdc" stroke-width="4" stroke-opacity="1" stroke-miterlimit="4"/></g><g clip-path="url(#fc90faf007)"><path stroke-linecap="butt" transform="matrix(0.563151, 0, 0, 0.563151, 391.323651, 118.74944)" fill="none" stroke-linejoin="miter" d="M 0.00100786 1.998684 L 100.558318 1.998684 " stroke="#e1dcdc" stroke-width="4" stroke-opacity="1" stroke-miterlimit="4"/></g><g clip-path="url(#c81202ecf6)"><path stroke-linecap="butt" transform="matrix(0, 0.563151, -0.563151, 0, 3.168564, -0.00567998)" fill="none" stroke-linejoin="miter" d="M 0.00314966 1.998746 L 74.535004 1.998746 " stroke="#e1dcdc" stroke-width="4" stroke-opacity="1" stroke-miterlimit="4"/></g><g clip-path="url(#793337a9c0)"><path stroke-linecap="butt" transform="matrix(-0.563151, 0, 0, -0.563151, 58.668861, 2.245638)" fill="none" stroke-linejoin="miter" d="M 0.0015842 1.99688 L 100.558894 1.99688 " stroke="#e1dcdc" stroke-width="4" stroke-opacity="1" stroke-miterlimit="4"/></g></svg>